<?xml version="1.0" standalone="no"?><!DOCTYPE svg PUBLIC "-//W3C//DTD SVG 1.1//EN" "http://www.w3.org/Graphics/SVG/1.1/DTD/svg11.dtd"><svg t="1603000957227" class="icon" viewBox="0 0 1024 1024" version="1.1" xmlns="http://www.w3.org/2000/svg" p-id="2564" xmlns:xlink="http://www.w3.org/1999/xlink" width="200" height="200"><defs><style type="text/css"></style></defs><path d="M359.89943695 116.4921875H238.15718841C171.26074981 116.4921875 116.4921875 171.26074981 116.4921875 238.15718841V359.82218933c0 66.8964386 54.76856232 121.66500092 121.66500092 121.66500092H359.82218933c66.8964386 0 121.66500092-54.76856232 121.66500092-121.66500092V238.15718841C481.56443787 171.26074981 426.79587554 116.4921875 359.89943695 116.4921875z m425.94337464 0H664.10056305c-66.8964386 0-121.66500092 54.76856232-121.66500092 121.66500092V359.82218933c0 66.8964386 54.76856232 121.66500092 121.66500092 121.66500092h121.66500091c66.8964386 0 121.66500092-54.76856232 121.66500092-121.66500092V238.15718841C907.5078125 171.26074981 852.73925019 116.4921875 785.84281159 116.4921875zM359.89943695 542.43556213H238.15718841C171.26074981 542.43556213 116.4921875 597.20412446 116.4921875 664.10056305v121.66500091C116.4921875 852.73925019 171.26074981 907.5078125 238.15718841 907.5078125H359.82218933c66.8964386 0 121.66500092-54.76856232 121.66500092-121.66500092V664.10056305c0.07724763-66.8964386-54.69131469-121.66500092-121.5877533-121.66500092z m425.94337464 0H664.10056305c-66.8964386 0-121.66500092 54.76856232-121.66500092 121.66500092v121.66500091c0 66.8964386 54.76856232 121.66500092 121.66500092 121.66500092h121.66500091c66.8964386 0 121.66500092-54.76856232 121.66500092-121.66500092V664.10056305c0.07724763-66.8964386-54.69131469-121.66500092-121.5877533-121.66500092z" fill="#d81e06" p-id="2565"></path></svg>